  0
SECTION
  2
HEADER
  9
$ACADVER
  1
AC1009
  9
$INSBASE
 10
0.0
 20
0.0
 30
0.0
  9
$EXTMIN
 10
0.0
 20
0.0
 30
0.0
  9
$EXTMAX
 10
0.0
 20
0.0
 30
0.0
  0
ENDSEC
  0
SECTION
  2
TABLES
  0
TABLE
  2
VPORT
 70
0
  0
ENDTAB
  0
TABLE
  2
LTYPE
 70
1
  0
LTYPE
  2
CONTINUOUS
 70
0
  3
Solid line
 72
65
 73
0
 40
0.0
  0
ENDTAB
  0
TABLE
  2
LAYER
 70
1
  0
LAYER
  2
0
 70
64
 62
7
  6
continuous
  0
ENDTAB
  0
TABLE
  2
STYLE
 70
1
  0
STYLE
  2
STANDARD
 70
0
 40
0
 41
1.0
 50
0.0
 71
0
 42
1
 3
ARIAL.TTF
 4

  0
ENDTAB
  0
TABLE
  2
VIEW
 70
0
  0
ENDTAB
  0
ENDSEC
  0
SECTION
  2
BLOCKS
  0
ENDSEC
  0
SECTION
  2
ENTITIES
  0
LINE
  8
0
 62
0
 10
-156.95248313208901
 20
107.627041
 30
0.0
 11
-156.95248313208901
 21
5.6270410000000055
 31
0.0
  0
LINE
  8
0
 62
0
 10
-156.95248313208901
 20
5.6270410000000055
 30
0.0
 11
-51.952483132088986
 21
-38.37295900000001
 31
0.0
  0
LINE
  8
0
 62
0
 10
-51.952483132088986
 20
-38.37295900000001
 30
0.0
 11
168.04751686791099
 21
-38.37295900000001
 31
0.0
  0
LINE
  8
0
 62
0
 10
168.04751686791099
 20
-38.37295900000001
 30
0.0
 11
223.047516867911
 21
-3.777092391358998
 31
0.0
  0
LINE
  8
0
 62
0
 10
223.047516867911
 20
-3.777092391358998
 30
0.0
 11
223.047516867911
 21
116.22290760864101
 31
0.0
  0
LINE
  8
0
 62
0
 10
223.047516867911
 20
116.22290760864101
 30
0.0
 11
168.04751686791099
 21
151.62704100000002
 31
0.0
  0
LINE
  8
0
 62
0
 10
168.04751686791099
 20
151.62704100000002
 30
0.0
 11
-51.952483132088986
 21
151.62704100000002
 31
0.0
  0
LINE
  8
0
 62
0
 10
-51.952483132088986
 20
151.62704100000002
 30
0.0
 11
-156.95248313208901
 21
107.627041
 31
0.0
  0
CIRCLE
  8
0
 62
0
 10
-124.952483132089
 20
101.22290760864101
 30
0.0
 40
3.0
  0
CIRCLE
  8
0
 62
0
 10
-124.952483132089
 20
11.222907608640995
 30
0.0
 40
3.0
  0
CIRCLE
  8
0
 62
0
 10
-136.952483132089
 20
77.222907608641
 30
0.0
 40
1.5
  0
CIRCLE
  8
0
 62
0
 10
-94.952483132089
 20
77.222907608641
 30
0.0
 40
1.5
  0
CIRCLE
  8
0
 62
0
 10
-136.952483132089
 20
35.222907608641
 30
0.0
 40
1.5
  0
CIRCLE
  8
0
 62
0
 10
-94.952483132089
 20
35.222907608641
 30
0.0
 40
1.5
  0
CIRCLE
  8
0
 62
0
 10
-60.452483132089
 20
138.62704100000002
 30
0.0
 40
1.5
  0
CIRCLE
  8
0
 62
0
 10
23.047516867911
 20
138.62704100000002
 30
0.0
 40
1.5
  0
CIRCLE
  8
0
 62
0
 10
-60.452483132089
 20
75.12704100000002
 30
0.0
 40
1.5
  0
CIRCLE
  8
0
 62
0
 10
23.047516867911
 20
75.12704100000002
 30
0.0
 40
1.5
  0
CIRCLE
  8
0
 62
0
 10
-41.952483132089
 20
47.127040999999984
 30
0.0
 40
1.5
  0
CIRCLE
  8
0
 62
0
 10
10.047516867911002
 20
47.127040999999984
 30
0.0
 40
1.5
  0
CIRCLE
  8
0
 62
0
 10
-41.952483132089
 20
-29.372959000000016
 30
0.0
 40
1.5
  0
CIRCLE
  8
0
 62
0
 10
10.047516867911002
 20
-29.372959000000016
 30
0.0
 40
1.5
  0
CIRCLE
  8
0
 62
0
 10
58.047516867911
 20
96.72290760864101
 30
0.0
 40
2.0
  0
CIRCLE
  8
0
 62
0
 10
58.047516867911
 20
15.722907608640996
 30
0.0
 40
2.0
  0
CIRCLE
  8
0
 62
0
 10
137.047516867911
 20
71.29841674228966
 30
0.0
 40
1.5
  0
CIRCLE
  8
0
 62
0
 10
167.047516867911
 20
71.29841674228966
 30
0.0
 40
1.5
  0
CIRCLE
  8
0
 62
0
 10
137.047516867911
 20
41.29841674228967
 30
0.0
 40
1.5
  0
CIRCLE
  8
0
 62
0
 10
167.047516867911
 20
41.29841674228967
 30
0.0
 40
1.5
  0
CIRCLE
  8
0
 62
0
 10
217.047516867911
 20
111.222907608641
 30
0.0
 40
3.0
  0
CIRCLE
  8
0
 62
0
 10
217.047516867911
 20
1.222907608641
 30
0.0
 40
3.0
  0
LINE
  8
0
 62
0
 10
44.547516867911
 20
38.32704100000003
 30
0.0
 11
44.547516867911
 21
136.92704100000003
 31
0.0
  0
LINE
  8
0
 62
0
 10
44.547516867911
 20
136.92704100000003
 30
0.0
 11
42.547516867911
 21
136.92704100000003
 31
0.0
  0
LINE
  8
0
 62
0
 10
42.547516867911
 20
136.92704100000003
 30
0.0
 11
42.547516867911
 21
38.32704100000004
 31
0.0
  0
LINE
  8
0
 62
0
 10
44.547516867911
 20
38.32704100000003
 30
0.0
 11
42.547516867911
 21
38.32704100000004
 31
0.0
  0
LINE
  8
0
 62
0
 10
28.547516867910996
 20
136.92704100000003
 30
0.0
 11
30.547516867910996
 21
136.92704100000003
 31
0.0
  0
LINE
  8
0
 62
0
 10
30.547516867910996
 20
136.92704100000003
 30
0.0
 11
30.547516867910996
 21
38.32704100000004
 31
0.0
  0
LINE
  8
0
 62
0
 10
30.547516867910996
 20
38.32704100000004
 30
0.0
 11
28.547516867910996
 21
38.32704100000003
 31
0.0
  0
LINE
  8
0
 62
0
 10
28.547516867910996
 20
38.32704100000003
 30
0.0
 11
28.547516867910996
 21
136.92704100000003
 31
0.0
  0
ARC
  8
0
 62
0
 10
58.04751686791117
 20
76.22290760864101
 30
0.0
 40
4.249999999999924
 50
-0.0
 51
-180.0
  0
LINE
  8
0
 62
0
 10
53.79751686791125
 20
76.22290760864101
 30
0.0
 11
53.79751686791124
 21
36.222907608641
 31
0.0
  0
ARC
  8
0
 62
0
 10
58.047516867911156
 20
36.222907608641
 30
0.0
 40
4.249999999999924
 50
-180.0
 51
-0.0
  0
LINE
  8
0
 62
0
 10
62.29751686791109
 20
76.22290760864098
 30
0.0
 11
62.29751686791108
 21
36.222907608640966
 31
0.0
  0
ARC
  8
0
 62
0
 10
-48.702483132089
 20
145.32704100000004
 30
0.0
 40
1.9999999999999898
 50
90.0
 51
-90.0
  0
LINE
  8
0
 62
0
 10
-48.702483132089
 20
143.32704100000004
 30
0.0
 11
11.297516867911
 21
143.32704100000004
 31
0.0
  0
ARC
  8
0
 62
0
 10
11.297516867911
 20
145.32704100000004
 30
0.0
 40
1.9999999999999898
 50
-90.0
 51
90.0
  0
LINE
  8
0
 62
0
 10
-48.702483132089
 20
147.32704100000004
 30
0.0
 11
11.297516867911
 21
147.32704100000004
 31
0.0
  0
CIRCLE
  8
0
 62
0
 10
134.347516867911
 20
98.7984167422896
 30
0.0
 40
1.0
  0
CIRCLE
  8
0
 62
0
 10
169.74751686791095
 20
98.7984167422896
 30
0.0
 40
1.0
  0
CIRCLE
  8
0
 62
0
 10
134.347516867911
 20
83.79841674228966
 30
0.0
 40
1.0
  0
CIRCLE
  8
0
 62
0
 10
169.74751686791095
 20
83.79841674228966
 30
0.0
 40
1.0
  0
CIRCLE
  8
0
 62
0
 10
134.347516867911
 20
28.798416742289653
 30
0.0
 40
1.0
  0
CIRCLE
  8
0
 62
0
 10
169.74751686791095
 20
28.798416742289653
 30
0.0
 40
1.0
  0
CIRCLE
  8
0
 62
0
 10
134.347516867911
 20
13.798416742289671
 30
0.0
 40
1.0
  0
CIRCLE
  8
0
 62
0
 10
169.74751686791095
 20
13.798416742289671
 30
0.0
 40
1.0
  0
CIRCLE
  8
0
 62
0
 10
123.247516867911
 20
101.84736642909547
 30
0.0
 40
1.5
  0
CIRCLE
  8
0
 62
0
 10
181.54751686791104
 20
101.84736642909546
 30
0.0
 40
1.5
  0
CIRCLE
  8
0
 62
0
 10
123.247516867911
 20
16.547366429095437
 30
0.0
 40
1.5
  0
CIRCLE
  8
0
 62
0
 10
181.54751686791104
 20
16.547366429095437
 30
0.0
 40
1.5
  0
ARC
  8
0
 62
0
 10
38.04751686791101
 20
13.627040999999993
 30
0.0
 40
5.000000000000003
 50
-0.0
 51
-180.0
  0
LINE
  8
0
 62
0
 10
33.04751686791101
 20
13.627040999999993
 30
0.0
 11
33.04751686791101
 21
-1.3729590000000038
 31
0.0
  0
ARC
  8
0
 62
0
 10
38.04751686791101
 20
-1.3729590000000047
 30
0.0
 40
5.000000000000003
 50
180.0
 51
-0.0
  0
LINE
  8
0
 62
0
 10
43.04751686791101
 20
13.627040999999993
 30
0.0
 11
43.04751686791101
 21
-1.3729590000000065
 31
0.0
  0
ARC
  8
0
 62
0
 10
78.04751686791099
 20
101.84736642912145
 30
0.0
 40
4.9999999999999964
 50
-0.0
 51
-180.0
  0
LINE
  8
0
 62
0
 10
73.04751686791099
 20
101.84736642912145
 30
0.0
 11
73.04751686791099
 21
86.84736642911332
 31
0.0
  0
ARC
  8
0
 62
0
 10
78.04751686791099
 20
86.84736642911332
 30
0.0
 40
4.9999999999999964
 50
-180.0
 51
-0.0
  0
LINE
  8
0
 62
0
 10
83.04751686791099
 20
101.84736642909095
 30
0.0
 11
83.04751686791099
 21
86.84736642909539
 31
0.0
  0
ENDSEC
  0
EOF
