  0
SECTION
  2
HEADER
  9
$ACADVER
  1
AC1009
  9
$INSBASE
 10
0.0
 20
0.0
 30
0.0
  9
$EXTMIN
 10
0.0
 20
0.0
 30
0.0
  9
$EXTMAX
 10
0.0
 20
0.0
 30
0.0
  0
ENDSEC
  0
SECTION
  2
TABLES
  0
TABLE
  2
VPORT
 70
0
  0
ENDTAB
  0
TABLE
  2
LTYPE
 70
1
  0
LTYPE
  2
CONTINUOUS
 70
0
  3
Solid line
 72
65
 73
0
 40
0.0
  0
ENDTAB
  0
TABLE
  2
LAYER
 70
1
  0
LAYER
  2
0
 70
64
 62
7
  6
continuous
  0
ENDTAB
  0
TABLE
  2
STYLE
 70
1
  0
STYLE
  2
STANDARD
 70
0
 40
0
 41
1.0
 50
0.0
 71
0
 42
1
 3
ARIAL.TTF
 4

  0
ENDTAB
  0
TABLE
  2
VIEW
 70
0
  0
ENDTAB
  0
ENDSEC
  0
SECTION
  2
BLOCKS
  0
ENDSEC
  0
SECTION
  2
ENTITIES
  0
LINE
  8
0
 62
0
 10
-156.95248313208901
 20
107.627041
 30
0.0
 11
-156.95248313208901
 21
5.627041000000006
 31
0.0
  0
LINE
  8
0
 62
0
 10
-156.95248313208901
 20
5.627041000000006
 30
0.0
 11
-51.952483132088986
 21
-38.37295900000001
 31
0.0
  0
LINE
  8
0
 62
0
 10
-51.952483132088986
 20
-38.37295900000001
 30
0.0
 11
168.04751686791099
 21
-38.37295900000001
 31
0.0
  0
LINE
  8
0
 62
0
 10
168.04751686791099
 20
-38.37295900000001
 30
0.0
 11
223.047516867911
 21
-3.777092391358998
 31
0.0
  0
LINE
  8
0
 62
0
 10
223.047516867911
 20
-3.777092391358998
 30
0.0
 11
223.047516867911
 21
116.22290760864101
 31
0.0
  0
LINE
  8
0
 62
0
 10
223.047516867911
 20
116.22290760864101
 30
0.0
 11
168.04751686791099
 21
151.627041
 31
0.0
  0
LINE
  8
0
 62
0
 10
168.04751686791099
 20
151.627041
 30
0.0
 11
-51.952483132088986
 21
151.627041
 31
0.0
  0
LINE
  8
0
 62
0
 10
-51.952483132088986
 20
151.627041
 30
0.0
 11
-156.95248313208901
 21
107.627041
 31
0.0
  0
CIRCLE
  8
0
 62
0
 10
-124.95248313208899
 20
101.22290760864101
 30
0.0
 40
3.0
  0
CIRCLE
  8
0
 62
0
 10
-124.95248313208899
 20
11.222907608641009
 30
0.0
 40
3.0
  0
CIRCLE
  8
0
 62
0
 10
-136.952483132089
 20
77.222907608641
 30
0.0
 40
1.5
  0
CIRCLE
  8
0
 62
0
 10
-94.952483132089
 20
77.222907608641
 30
0.0
 40
1.5
  0
CIRCLE
  8
0
 62
0
 10
-136.952483132089
 20
35.222907608641
 30
0.0
 40
1.5
  0
CIRCLE
  8
0
 62
0
 10
-94.952483132089
 20
35.222907608641
 30
0.0
 40
1.5
  0
CIRCLE
  8
0
 62
0
 10
-60.45248313208899
 20
138.62704100000002
 30
0.0
 40
1.5
  0
CIRCLE
  8
0
 62
0
 10
23.047516867911007
 20
138.62704100000002
 30
0.0
 40
1.5
  0
CIRCLE
  8
0
 62
0
 10
-60.45248313208899
 20
75.12704100000002
 30
0.0
 40
1.5
  0
CIRCLE
  8
0
 62
0
 10
23.047516867911007
 20
75.12704100000002
 30
0.0
 40
1.5
  0
CIRCLE
  8
0
 62
0
 10
-41.95248313208899
 20
47.127041
 30
0.0
 40
1.5
  0
CIRCLE
  8
0
 62
0
 10
10.047516867911007
 20
47.127041
 30
0.0
 40
1.5
  0
CIRCLE
  8
0
 62
0
 10
-41.95248313208899
 20
-29.372958999999998
 30
0.0
 40
1.5
  0
CIRCLE
  8
0
 62
0
 10
10.047516867911007
 20
-29.372958999999998
 30
0.0
 40
1.5
  0
CIRCLE
  8
0
 62
0
 10
58.047516867911
 20
96.72290760864101
 30
0.0
 40
2.0
  0
CIRCLE
  8
0
 62
0
 10
58.047516867911
 20
15.722907608641
 30
0.0
 40
2.0
  0
CIRCLE
  8
0
 62
0
 10
112.04751686791104
 20
71.32500446540539
 30
0.0
 40
1.5
  0
CIRCLE
  8
0
 62
0
 10
142.04751686791104
 20
71.32500446540539
 30
0.0
 40
1.5
  0
CIRCLE
  8
0
 62
0
 10
112.04751686791104
 20
41.325004465405385
 30
0.0
 40
1.5
  0
CIRCLE
  8
0
 62
0
 10
142.04751686791104
 20
41.325004465405385
 30
0.0
 40
1.5
  0
CIRCLE
  8
0
 62
0
 10
217.047516867911
 20
111.222907608641
 30
0.0
 40
3.0
  0
CIRCLE
  8
0
 62
0
 10
217.047516867911
 20
1.222907608641
 30
0.0
 40
3.0
  0
LINE
  8
0
 62
0
 10
44.547516867911
 20
38.32704100000002
 30
0.0
 11
44.547516867911
 21
136.92704100000003
 31
0.0
  0
LINE
  8
0
 62
0
 10
44.547516867911
 20
136.92704100000003
 30
0.0
 11
42.547516867911
 21
136.92704100000003
 31
0.0
  0
LINE
  8
0
 62
0
 10
42.547516867911
 20
136.92704100000003
 30
0.0
 11
42.547516867911
 21
38.32704100000002
 31
0.0
  0
LINE
  8
0
 62
0
 10
44.547516867911
 20
38.32704100000002
 30
0.0
 11
42.547516867911
 21
38.32704100000002
 31
0.0
  0
LINE
  8
0
 62
0
 10
28.547516867910996
 20
136.92704100000003
 30
0.0
 11
30.547516867910996
 21
136.92704100000003
 31
0.0
  0
LINE
  8
0
 62
0
 10
30.547516867910996
 20
136.92704100000003
 30
0.0
 11
30.547516867910996
 21
38.32704100000002
 31
0.0
  0
LINE
  8
0
 62
0
 10
30.547516867910996
 20
38.32704100000002
 30
0.0
 11
28.547516867910996
 21
38.32704100000002
 31
0.0
  0
LINE
  8
0
 62
0
 10
28.547516867910996
 20
38.32704100000002
 30
0.0
 11
28.547516867910996
 21
136.92704100000003
 31
0.0
  0
ARC
  8
0
 62
0
 10
58.047516867911
 20
86.222907608641
 30
0.0
 40
3.0
 50
-0.0
 51
-180.0
  0
LINE
  8
0
 62
0
 10
55.047516867911
 20
86.222907608641
 30
0.0
 11
55.047516867911
 21
26.222907608641002
 31
0.0
  0
ARC
  8
0
 62
0
 10
58.047516867911
 20
26.222907608641002
 30
0.0
 40
3.0
 50
-180.0
 51
-0.0
  0
LINE
  8
0
 62
0
 10
61.047516867911
 20
86.2229076086387
 30
0.0
 11
61.047516867911
 21
26.222907608638714
 31
0.0
  0
ARC
  8
0
 62
0
 10
-48.70248313208899
 20
145.32704100000004
 30
0.0
 40
1.9999999999999984
 50
90.0
 51
-90.0
  0
LINE
  8
0
 62
0
 10
-48.70248313208899
 20
143.32704100000004
 30
0.0
 11
11.297516867911007
 21
143.32704100000004
 31
0.0
  0
ARC
  8
0
 62
0
 10
11.297516867911009
 20
145.32704100000004
 30
0.0
 40
1.9999999999999984
 50
-90.00000000000006
 51
90.00000000000006
  0
LINE
  8
0
 62
0
 10
-48.70248313208899
 20
147.32704100000004
 30
0.0
 11
11.297516867911007
 21
147.32704100000004
 31
0.0
  0
CIRCLE
  8
0
 62
0
 10
109.34751686791108
 20
98.82500446540537
 30
0.0
 40
1.0
  0
CIRCLE
  8
0
 62
0
 10
144.74751686791106
 20
98.82500446540537
 30
0.0
 40
1.0
  0
CIRCLE
  8
0
 62
0
 10
109.34751686791108
 20
83.82500446540539
 30
0.0
 40
1.0
  0
CIRCLE
  8
0
 62
0
 10
144.74751686791106
 20
83.82500446540539
 30
0.0
 40
1.0
  0
CIRCLE
  8
0
 62
0
 10
109.34751686791101
 20
28.82500446540539
 30
0.0
 40
1.0
  0
CIRCLE
  8
0
 62
0
 10
144.747516867911
 20
28.82500446540539
 30
0.0
 40
1.0
  0
CIRCLE
  8
0
 62
0
 10
109.34751686791101
 20
13.825004465405383
 30
0.0
 40
1.0
  0
CIRCLE
  8
0
 62
0
 10
144.747516867911
 20
13.825004465405383
 30
0.0
 40
1.0
  0
CIRCLE
  8
0
 62
0
 10
98.24751686791103
 20
101.87395415221116
 30
0.0
 40
1.5
  0
CIRCLE
  8
0
 62
0
 10
156.54751686791104
 20
101.87395415221117
 30
0.0
 40
1.5
  0
CIRCLE
  8
0
 62
0
 10
98.24751686791103
 20
16.57395415221115
 30
0.0
 40
1.5
  0
CIRCLE
  8
0
 62
0
 10
156.54751686791104
 20
16.57395415221115
 30
0.0
 40
1.5
  0
ENDSEC
  0
EOF
