  0
SECTION
  2
HEADER
  9
$ACADVER
  1
AC1009
  9
$INSBASE
 10
0.0
 20
0.0
 30
0.0
  9
$EXTMIN
 10
0.0
 20
0.0
 30
0.0
  9
$EXTMAX
 10
0.0
 20
0.0
 30
0.0
  0
ENDSEC
  0
SECTION
  2
TABLES
  0
TABLE
  2
VPORT
 70
0
  0
ENDTAB
  0
TABLE
  2
LTYPE
 70
1
  0
LTYPE
  2
CONTINUOUS
 70
0
  3
Solid line
 72
65
 73
0
 40
0.0
  0
ENDTAB
  0
TABLE
  2
LAYER
 70
1
  0
LAYER
  2
0
 70
64
 62
7
  6
continuous
  0
ENDTAB
  0
TABLE
  2
STYLE
 70
1
  0
STYLE
  2
STANDARD
 70
0
 40
0
 41
1.0
 50
0.0
 71
0
 42
1
 3
ARIAL.TTF
 4

  0
ENDTAB
  0
TABLE
  2
VIEW
 70
0
  0
ENDTAB
  0
ENDSEC
  0
SECTION
  2
BLOCKS
  0
ENDSEC
  0
SECTION
  2
ENTITIES
  0
LINE
  8
0
 62
0
 10
-156.95248313208901
 20
107.627041
 30
0.0
 11
-156.95248313208901
 21
5.627041000000006
 31
0.0
  0
LINE
  8
0
 62
0
 10
-156.95248313208901
 20
5.627041000000006
 30
0.0
 11
-51.952483132089
 21
-38.37295899999998
 31
0.0
  0
LINE
  8
0
 62
0
 10
-51.952483132089
 20
-38.37295899999998
 30
0.0
 11
168.04751686791099
 21
-38.37295899999998
 31
0.0
  0
LINE
  8
0
 62
0
 10
168.04751686791099
 20
-38.37295899999998
 30
0.0
 11
223.047516867911
 21
-3.777092391358998
 31
0.0
  0
LINE
  8
0
 62
0
 10
223.047516867911
 20
-3.777092391358998
 30
0.0
 11
223.047516867911
 21
116.22290760864101
 31
0.0
  0
LINE
  8
0
 62
0
 10
223.047516867911
 20
116.22290760864101
 30
0.0
 11
168.047516867911
 21
151.62704100000002
 31
0.0
  0
LINE
  8
0
 62
0
 10
168.047516867911
 20
151.62704100000002
 30
0.0
 11
-51.95248313208899
 21
151.62704100000002
 31
0.0
  0
LINE
  8
0
 62
0
 10
-51.95248313208899
 20
151.62704100000002
 30
0.0
 11
-156.95248313208901
 21
107.627041
 31
0.0
  0
CIRCLE
  8
0
 62
0
 10
-124.952483132089
 20
101.22290760864101
 30
0.0
 40
3.0
  0
CIRCLE
  8
0
 62
0
 10
-124.952483132089
 20
11.222907608641009
 30
0.0
 40
3.0
  0
CIRCLE
  8
0
 62
0
 10
-136.952483132089
 20
77.222907608641
 30
0.0
 40
1.5
  0
CIRCLE
  8
0
 62
0
 10
-94.952483132089
 20
77.222907608641
 30
0.0
 40
1.5
  0
CIRCLE
  8
0
 62
0
 10
-136.952483132089
 20
35.222907608641
 30
0.0
 40
1.5
  0
CIRCLE
  8
0
 62
0
 10
-94.952483132089
 20
35.222907608641
 30
0.0
 40
1.5
  0
CIRCLE
  8
0
 62
0
 10
-60.45248313208902
 20
138.62704100000002
 30
0.0
 40
1.5
  0
CIRCLE
  8
0
 62
0
 10
23.04751686791098
 20
138.62704100000002
 30
0.0
 40
1.5
  0
CIRCLE
  8
0
 62
0
 10
-60.45248313208902
 20
75.12704100000002
 30
0.0
 40
1.5
  0
CIRCLE
  8
0
 62
0
 10
23.04751686791098
 20
75.12704100000002
 30
0.0
 40
1.5
  0
CIRCLE
  8
0
 62
0
 10
-41.95248313208902
 20
47.127041000000006
 30
0.0
 40
1.5
  0
CIRCLE
  8
0
 62
0
 10
10.04751686791098
 20
47.127041000000006
 30
0.0
 40
1.5
  0
CIRCLE
  8
0
 62
0
 10
-41.95248313208902
 20
-29.372958999999994
 30
0.0
 40
1.5
  0
CIRCLE
  8
0
 62
0
 10
10.04751686791098
 20
-29.372958999999994
 30
0.0
 40
1.5
  0
CIRCLE
  8
0
 62
0
 10
58.047516867910986
 20
96.72290760864101
 30
0.0
 40
2.0
  0
CIRCLE
  8
0
 62
0
 10
58.047516867910986
 20
15.722907608641002
 30
0.0
 40
2.0
  0
CIRCLE
  8
0
 62
0
 10
93.04751686791099
 20
114.36116376884277
 30
0.0
 40
1.5
  0
CIRCLE
  8
0
 62
0
 10
209.04751686791099
 20
114.36116376884277
 30
0.0
 40
1.5
  0
CIRCLE
  8
0
 62
0
 10
93.04751686791099
 20
-1.638836231157226
 30
0.0
 40
1.5
  0
CIRCLE
  8
0
 62
0
 10
209.04751686791099
 20
-1.638836231157226
 30
0.0
 40
1.5
  0
CIRCLE
  8
0
 62
0
 10
136.04748406745304
 20
71.29948028609788
 30
0.0
 40
1.5
  0
CIRCLE
  8
0
 62
0
 10
166.04748406745304
 20
71.29948028609788
 30
0.0
 40
1.5
  0
CIRCLE
  8
0
 62
0
 10
136.04748406745304
 20
41.29948028609788
 30
0.0
 40
1.5
  0
CIRCLE
  8
0
 62
0
 10
166.04748406745304
 20
41.29948028609788
 30
0.0
 40
1.5
  0
CIRCLE
  8
0
 62
0
 10
217.047516867911
 20
111.222907608641
 30
0.0
 40
3.0
  0
CIRCLE
  8
0
 62
0
 10
217.047516867911
 20
1.222907608641
 30
0.0
 40
3.0
  0
CIRCLE
  8
0
 62
0
 10
135.54748406745304
 20
9.29948028609787
 30
0.0
 40
1.5
  0
CIRCLE
  8
0
 62
0
 10
166.54748406745307
 20
24.29948028609788
 30
0.0
 40
1.5
  0
CIRCLE
  8
0
 62
0
 10
169.39748406745298
 20
99.49948028609784
 30
0.0
 40
1.0
  0
CIRCLE
  8
0
 62
0
 10
132.69748406745308
 20
88.29948028609788
 30
0.0
 40
1.0
  0
LINE
  8
0
 62
0
 10
44.547516867910986
 20
38.327041000000015
 30
0.0
 11
44.547516867910986
 21
136.92704100000003
 31
0.0
  0
LINE
  8
0
 62
0
 10
44.547516867910986
 20
136.92704100000003
 30
0.0
 11
42.547516867910986
 21
136.92704100000003
 31
0.0
  0
LINE
  8
0
 62
0
 10
42.547516867910986
 20
136.92704100000003
 30
0.0
 11
42.547516867910986
 21
38.32704100000001
 31
0.0
  0
LINE
  8
0
 62
0
 10
44.547516867910986
 20
38.327041000000015
 30
0.0
 11
42.547516867910986
 21
38.32704100000001
 31
0.0
  0
LINE
  8
0
 62
0
 10
28.547516867910982
 20
136.92704100000003
 30
0.0
 11
30.547516867910982
 21
136.92704100000003
 31
0.0
  0
LINE
  8
0
 62
0
 10
30.547516867910982
 20
136.92704100000003
 30
0.0
 11
30.547516867910982
 21
38.32704100000001
 31
0.0
  0
LINE
  8
0
 62
0
 10
30.547516867910982
 20
38.32704100000001
 30
0.0
 11
28.547516867910982
 21
38.327041000000015
 31
0.0
  0
LINE
  8
0
 62
0
 10
28.547516867910982
 20
38.327041000000015
 30
0.0
 11
28.547516867910982
 21
136.92704100000003
 31
0.0
  0
LINE
  8
0
 62
0
 10
71.54751686791097
 20
38.327041000000015
 30
0.0
 11
71.54751686791097
 21
136.92704100000003
 31
0.0
  0
LINE
  8
0
 62
0
 10
71.54751686791097
 20
136.92704100000003
 30
0.0
 11
73.54751686791097
 21
136.92704100000003
 31
0.0
  0
LINE
  8
0
 62
0
 10
73.54751686791097
 20
38.327041000000015
 30
0.0
 11
73.54751686791097
 21
136.92704100000003
 31
0.0
  0
LINE
  8
0
 62
0
 10
71.54751686791097
 20
38.327041000000015
 30
0.0
 11
73.54751686791097
 21
38.327041000000015
 31
0.0
  0
LINE
  8
0
 62
0
 10
85.54751686791097
 20
136.92704100000003
 30
0.0
 11
87.54751686791097
 21
136.92704100000003
 31
0.0
  0
LINE
  8
0
 62
0
 10
87.54751686791097
 20
136.92704100000003
 30
0.0
 11
87.54751686791097
 21
38.32704100000001
 31
0.0
  0
LINE
  8
0
 62
0
 10
87.54751686791097
 20
38.32704100000001
 30
0.0
 11
85.54751686791097
 21
38.32704100000001
 31
0.0
  0
LINE
  8
0
 62
0
 10
85.54751686791097
 20
136.92704100000003
 30
0.0
 11
85.54751686791097
 21
38.32704100000001
 31
0.0
  0
ARC
  8
0
 62
0
 10
58.047516867911
 20
86.222907608641
 30
0.0
 40
2.7500000000000013
 50
-0.0
 51
-180.0
  0
LINE
  8
0
 62
0
 10
55.297516867911
 20
86.222907608641
 30
0.0
 11
55.297516867911
 21
26.222907608641002
 31
0.0
  0
ARC
  8
0
 62
0
 10
58.047516867911
 20
26.222907608641002
 30
0.0
 40
2.7500000000000013
 50
-180.0
 51
-0.0
  0
LINE
  8
0
 62
0
 10
60.797516867911
 20
86.22290760863889
 30
0.0
 11
60.797516867911
 21
26.222907608638906
 31
0.0
  0
ARC
  8
0
 62
0
 10
-48.70248313208902
 20
145.37704100000002
 30
0.0
 40
1.7500000000000135
 50
90.0
 51
-90.0
  0
LINE
  8
0
 62
0
 10
-48.70248313208902
 20
143.62704100000002
 30
0.0
 11
11.297516867910971
 21
143.62704100000002
 31
0.0
  0
ARC
  8
0
 62
0
 10
11.297516867910973
 20
145.37704100000002
 30
0.0
 40
1.7500000000000135
 50
-90.00000000000006
 51
90.00000000000006
  0
LINE
  8
0
 62
0
 10
-48.70248313208902
 20
147.12704100000002
 30
0.0
 11
11.297516867910971
 21
147.12704100000002
 31
0.0
  0
ENDSEC
  0
EOF
